<svg xmlns:xlink="http://www.w3.org/1999/xlink" xmlns="http://www.w3.org/2000/svg" viewBox="0 0 350 120.3529291108734" preserveAspectRatio="xMidYMid meet" class="css-18yrpox" id="bbhcdeec" width="100"  height="34.38655117453526" ><defs id="SvgjsDefs1236"></defs><g id="SvgjsG1237" featurekey="nameFeature-0" transform="matrix(2.9910040119376236,0,0,2.9910040119376236,-9.264677257241393,-36.283123880293594)" fill="#FFFFFF"><path d="M7.632 16.036 c0.50576 -0.051952 1.0167 -0.049452 1.8242 -0.085392 c3.1555 0.35148 6.4372 1.1228 8.1784 4.5264 c1.7688 3.4576 1.5146 6.998 -0.67688 10.145 c-2.5949 3.7263 -6.1548 6.464 -10.151 8.5896 c-1.2824 0.68192 -2.5016 0.16172 -2.9175 -1.2061 c-0.26141 -0.85988 -0.27476 -1.8091 -0.30852 -2.7216 c-0.17266 -4.6824 -0.3175 -9.366 -0.46848 -14.049 c-0.12973 -4.0232 0.53644 -4.7908 4.5204 -5.1988 z M14.042 21.852 c-1.1912 -1.814 -3.8186 -2.4647 -6.7172 -1.7334 l0 13.826 c0.22988 0.09574 0.45976 0.19148 0.68984 0.28723 c1.81 -1.729 3.7795 -3.3229 5.3872 -5.2228 c1.778 -2.1014 1.8858 -5.2604 0.64008 -7.1572 z M35.21 28.414 c1.0006 5.216 -3.5015 11.115 -8.8256 11.565 c-3.3856 0.28574 -5.938 -2.422 -5.8704 -6.2284 c0.090936 -5.1044 4.7892 -9.9308 9.7444 -10.01 c2.1532 -0.034414 4.4676 2.1499 4.9516 4.6732 z M31.369 30.9932 c0.24848 -1.1916 0.39199 -2.4555 -1.1046 -3.3568 c-0.64268 0.22812 -1.3849 0.51452 -2.1413 0.7558 c-2.5022 0.79828 -3.3542 2.8706 -3.7206 5.136 c-0.12359 0.76388 0.29254 1.881 0.86096 2.3994 c0.39113 0.35695 1.5591 0.16215 2.223 -0.13566 c2.0648 -0.92648 3.4158 -2.5629 3.8826 -4.7988 z M48.816 21.038 c0.16258 1.3012 -0.74792 1.7713 -1.842 1.9856 c-0.69728 0.13629 -1.3983 0.25285 -2.3953 0.43168 c0.11219 2.8033 0.22043 5.616 0.33918 8.428 c0.073204 1.7313 0.19746 3.4611 0.23188 5.1932 c0.023867 1.1989 0.24453 2.5927 -1.4741 2.8892 c-1.3599 0.23469 -2.1492 -0.7448 -2.3072 -2.8868 c-0.14988 -2.0318 -0.21363 -4.07 -0.32781 -6.1044 c-0.12535 -2.2338 -0.26492 -4.4668 -0.39902 -6.7156 c-1.2262 -0.81716 -3.5138 -0.013398 -3.5528 -2.2476 c-0.031992 -1.8357 1.7605 -1.6417 3.1244 -2.2662 c-0.049532 -1.62 -0.11922 -3.3317 -0.14793 -5.044 c-0.019922 -1.1859 0.17774 -2.2993 1.6157 -2.5422 c1.1866 -0.20051 2.055 0.68064 2.2187 2.335 c0.15777 1.5946 0.18953 3.2017 0.2807 4.876 c0.97888 0.036172 1.6768 0.055 2.3739 0.08918 c1.0838 0.053048 2.1026 0.30285 2.2619 1.5786 z M67.453 38.2656 c-1.3854 2.9819 -4.3376 3.8111 -7.4324 4.0264 c-4.048 0.054336 -8.2388 -2.9784 -9.3124 -6.7376 c-0.2827 -0.99004 -0.1098 -1.8346 0.82608 -2.3835 c0.98804 -0.57936 1.7942 -0.17027 2.4019 0.6254 c0.6802 0.8908 1.1316 1.9965 1.9294 2.7464 c0.8408 0.7904 1.9023 1.5558 2.9929 1.8262 c2.1606 0.53596 4.7552 -0.44024 5.1096 -1.807 c0.53864 -2.0774 -0.6552 -3.4796 -2.2046 -4.66 c-1.6251 -1.2378 -3.2672 -2.4577 -4.832 -3.7688 c-2.6015 -2.1799 -4.08 -4.8968 -3.2438 -8.3688 c0.85572 -3.5512 3.4624 -5.3492 6.7976 -6.376 c4.2836 -1.3187 8.6856 3.551 8.824 7.2388 c0.024102 0.64316 -0.86032 1.6124 -1.5434 1.8861 c-0.44396 0.1777 -1.451 -0.49352 -1.9007 -1.037 c-0.4924 -0.59516 -0.5592 -1.5212 -0.94228 -2.2325 c-1.1822 -2.195 -2.7426 -2.7446 -4.7648 -1.7578 c-2.3478 1.1452 -3.4916 3.4767 -2.5082 5.498 c0.47484 0.9758 1.2477 1.872 2.0668 2.6004 c1.3707 1.219 2.8947 2.2641 4.3372 3.4038 c0.63984 0.50556 1.3165 0.9964 1.8418 1.6093 c1.9338 2.2559 2.8202 4.9488 1.5574 7.6676 z M84.92700000000002 29.738 c-0.43804 6.6228 -0.87652 13.246 -1.3115 19.869 c-0.026719 0.40736 0.12207 0.91528 -0.069884 1.2047 c-0.40648 0.61312 -0.94664 1.5 -1.5019 1.5536 c-0.59844 0.058088 -1.515 -0.5684 -1.8558 -1.1515 c-0.37492 -0.6416 -0.32648 -1.5734 -0.33285 -2.3798 c-0.029375 -3.6674 -0.01293 -7.3348 -0.01293 -11.153 c-0.42184 0.17508 -0.95388 0.37164 -1.4651 0.61204 c-3.4997 1.6459 -6.3972 0.25945 -7.0052 -3.5972 c-0.36356 -2.3061 -0.31621 -4.6868 -0.33047 -7.0348 c-0.0085548 -1.425 0.13234 -2.8656 0.36461 -4.2732 c0.1968 -1.1921 0.8316 -2.1869 2.2674 -1.934 c1.4311 0.25199 1.5313 1.3371 1.478 2.58 c-0.12644 2.9563 -0.17289 5.9168 -0.1834 8.8764 c-0.0024219 0.67624 0.27082 1.3531 0.50132 2.419 c2.6857 -1.0595 3.7294 -3.0413 4.7152 -5.046 c0.449 -0.91312 0.60916 -2.0009 1.1833 -2.8084 c0.39836 -0.56032 1.2617 -1.0398 1.9496 -1.0871 c1.0801 -0.074296 1.5547 0.857 1.6972 1.8304 c0.072108 0.49196 -0.053908 1.0126 -0.087424 1.5204 z M98.00000000000003 24.381999999999998 c1.9575 0.67536 2.8576 2.3317 2.773 4.3212 c-0.13344 3.1467 -0.40056 6.2928 -0.75288 9.4232 c-0.13695 1.2168 -0.97556 2.1258 -2.3418 1.8109 c-1.306 -0.30109 -1.6672 -1.2902 -1.4272 -2.6057 c0.29211 -1.6005 0.52812 -3.2186 0.65348 -4.8396 c0.10672 -1.3794 0.022148 -2.774 0.022148 -4.1616 c-0.28774 -0.12535 -0.57548 -0.25047 -0.8632 -0.37558 c-0.85988 1.3301 -1.8456 2.5974 -2.549 4.0056 c-0.9988 1.9993 -1.775 4.1092 -2.6762 6.1584 c-0.4492 1.0211 -1.2692 1.8345 -2.369 1.4007 c-0.71152 -0.2807 -1.6292 -1.2179 -1.6472 -1.8828 c-0.10363 -3.863 -0.014219 -7.734 0.11902 -11.599 c0.03332 -0.96812 0.69596 -1.7278 1.8019 -1.7278 c1.2624 0 1.7908 0.81144 1.8841 1.9619 c0.044924 0.55176 0.0076564 1.1103 0.0076564 2.2853 c1.0181 -1.1993 1.5744 -1.8828 2.1606 -2.5397 c1.4073 -1.5777 3.1596 -2.341 5.2044 -1.6356 z M119.58200000000002 32.6888 c0.76276 0.81892 0.66596 1.7375 -0.029766 2.4864 c-2.3458 2.5257 -5.014 4.5944 -8.6156 4.8132 c-4.9752 0.30219 -9.6008 -5.4748 -8.1544 -10.262 c1.1758 -3.892 3.7991 -6.734 7.3176 -8.6992 c1.6621 -0.92824 3.4899 -1.1294 5.3372 -0.47136 c1.0312 0.3675 1.9062 0.95584 1.7101 2.1998 c-0.20356 1.2918 -1.231 1.4815 -2.337 1.4136 c-0.20356 -0.012695 -0.4054 -0.053908 -0.60808 -0.081952 c-3.1436 -0.10781 -7.7824 4.196 -7.8248 7.3412 c-0.0092188 0.68632 0.23402 1.4209 0.52416 2.059 c1.1677 2.5682 3.5869 3.4375 6.082 2.1308 c0.98432 -0.5154 1.8453 -1.2749 2.7345 -1.9594 c0.48384 -0.3723 0.8638 -0.89012 1.3706 -1.2194 c0.86076 -0.55944 1.7526 -0.54584 2.4935 0.24957 z" fill="#FFFFFF"></path></g></svg>