<svg xmlns="http://www.w3.org/2000/svg" xmlns:xlink="http://www.w3.org/1999/xlink" version="1.1" width="1080" height="1080" viewBox="0 0 1080 1080" xml:space="preserve">
<desc>Created with Fabric.js 5.2.4</desc>
<defs>
</defs>
<g transform="matrix(1 0 0 1 540 540)" id="3a878300-16e5-415a-a7e3-75521dde5eb7"  >
<rect style="stroke: none; stroke-width: 1; stroke-dasharray: none; stroke-linecap: butt; stroke-dashoffset: 0; stroke-linejoin: miter; stroke-miterlimit: 4; fill: rgb(255,255,255); fill-rule: nonzero; opacity: 1; visibility: hidden;" vector-effect="non-scaling-stroke"  x="-540" y="-540" rx="0" ry="0" width="1080" height="1080" />
</g>
<g transform="matrix(1 0 0 1 540 540)" id="f6129162-df1b-40bb-9622-bef3724be040"  >
</g>
<g transform="matrix(8.68 0 0 8.68 540 540)" id="1178ef3f-85a6-4b2b-a753-58fc3004c452"  >
<path style="stroke: rgb(0,0,0); stroke-width: 0; stroke-dasharray: none; stroke-linecap: butt; stroke-dashoffset: 0; stroke-linejoin: miter; stroke-miterlimit: 4; fill: rgb(0,0,0); fill-rule: nonzero; opacity: 1;" vector-effect="non-scaling-stroke"  transform=" translate(-50.33, -50)" d="M 50.333 2.553 C 34.647 2.553 20.721999999999998 10.209 12.077999999999996 21.975 C 10.784999999999997 23.607000000000003 9.653999999999996 25.373 8.706999999999995 27.252000000000002 C 4.998 34.01 2.885 41.763 2.885 50.001 C 2.885 76.164 24.17 97.449 50.333 97.449 C 76.496 97.449 97.781 76.164 97.781 50.001 C 97.781 23.837999999999994 76.496 2.553 50.333 2.553 z M 44.928 61.67 C 37.031 61.67 30.605999999999998 55.164 30.605999999999998 47.167 C 30.605999999999998 39.17 37.031 32.664 44.928 32.664 C 52.824999999999996 32.664 59.25 39.17 59.25 47.167 C 59.25 55.164 52.825 61.67 44.928 61.67 z M 44.928 28.412 C 34.68599999999999 28.412 26.353999999999996 36.825 26.353999999999996 47.167 C 26.353999999999996 57.509 34.68599999999999 65.922 44.928 65.922 C 45.044 65.922 45.156 65.90599999999999 45.271 65.904 C 42.347 67.048 39.174 67.681 35.856 67.681 C 21.408 67.681 9.653000000000002 55.786 9.653000000000002 41.166 C 9.653000000000002 36.888999999999996 10.666000000000002 32.849 12.451000000000002 29.266999999999996 C 13.362000000000002 27.608999999999995 14.382000000000001 26.018999999999995 15.496000000000002 24.500999999999998 C 20.304000000000002 18.497999999999998 27.643 14.650999999999998 35.856 14.650999999999998 C 49.867000000000004 14.650999999999998 61.344 25.836 62.027 39.842999999999996 C 59.196 33.132 52.599 28.412 44.928 28.412 z M 50.333 93.197 C 27.02 93.197 7.972999999999999 74.629 7.174999999999997 51.507000000000005 C 11.388999999999998 63.400000000000006 22.653 71.934 35.855999999999995 71.934 C 52.64999999999999 71.934 66.312 58.132 66.312 41.167 C 66.312 24.202000000000005 52.649 10.4 35.855 10.4 C 34.808 10.4 33.772999999999996 10.454 32.751999999999995 10.558 C 38.126 8.153 44.07299999999999 6.804 50.331999999999994 6.804 C 74.14999999999999 6.804 93.52799999999999 26.182000000000002 93.52799999999999 50 C 93.52799999999999 73.818 74.151 93.197 50.333 93.197 z" stroke-linecap="round" />
</g>
<g transform="matrix(3.76 0 0 3.76 497.22 517.39)" id="e30e3638-8047-4161-bb58-3a0c72ce3ad5"  >
<circle style="stroke: rgb(0,0,0); stroke-width: 0; stroke-dasharray: none; stroke-linecap: butt; stroke-dashoffset: 0; stroke-linejoin: miter; stroke-miterlimit: 4; fill: rgb(0,0,0); fill-rule: nonzero; opacity: 1;" vector-effect="non-scaling-stroke"  cx="0" cy="0" r="35" />
</g>
</svg>